ffmpeg version N-86111-ga441aa90e8-static http://johnvansickle.com/ffmpeg/  Copyright (c) 2000-2017 the FFmpeg developers
  built with gcc 5.4.1 (Debian 5.4.1-8) 20170304
  configuration: --enable-gpl --enable-version3 --enable-static --disable-debug --disable-ffplay --disable-indev=sndio --disable-outdev=sndio --cc=gcc-5 --enable-fontconfig --enable-frei0r --enable-gnutls --enable-gray --enable-libass --enable-libfreetype --enable-libfribidi --enable-libmp3lame --enable-libopencore-amrnb --enable-libopencore-amrwb --enable-libopenjpeg --enable-libopus --enable-librtmp --enable-libsoxr --enable-libspeex --enable-libtheora --enable-libvidstab --enable-libvo-amrwbenc --enable-libvorbis --enable-libvpx --enable-libwebp --enable-libx264 --enable-libx265 --enable-libxvid --enable-libzimg
  libavutil      55. 63.100 / 55. 63.100
  libavcodec     57. 96.101 / 57. 96.101
  libavformat    57. 72.101 / 57. 72.101
  libavdevice    57.  7.100 / 57.  7.100
  libavfilter     6. 89.101 /  6. 89.101
  libswscale      4.  7.101 /  4.  7.101
  libswresample   2.  8.100 /  2.  8.100
  libpostproc    54.  6.100 / 54.  6.100
Input #0, rawvideo, from 'pipe:':
  Duration: N/A, start: 0.000000, bitrate: 662888 kb/s
    Stream #0:0: Video: rawvideo (RGB[24] / 0x18424752), rgb24, 1280x720, 662888 kb/s, 29.97 tbr, 29.97 tbn, 29.97 tbc
Stream mapping:
  Stream #0:0 -> #0:0 (rawvideo (native) -> h264 (libx264))
[libx264 @ 0x53dfb60] using cpu capabilities: MMX2 SSE2Fast SSSE3 SSE4.2 AVX FMA3 AVX2 LZCNT BMI2
[libx264 @ 0x53dfb60] profile High, level 3.1
[libx264 @ 0x53dfb60] 264 - core 148 r333 90a61ec - H.264/MPEG-4 AVC codec - Copyleft 2003-2017 - http://www.videolan.org/x264.html - options: cabac=1 ref=3 deblock=1:0:0 analyse=0x3:0x113 me=hex subme=7 psy=1 psy_rd=1.00:0.00 mixed_ref=1 me_range=16 chroma_me=1 trellis=1 8x8dct=1 cqm=0 deadzone=21,11 fast_pskip=1 chroma_qp_offset=-2 threads=8 lookahead_threads=1 sliced_threads=0 nr=0 decimate=1 interlaced=0 bluray_compat=0 constrained_intra=0 bframes=3 b_pyramid=2 b_adapt=1 b_bias=0 direct=1 weightb=1 open_gop=0 weightp=2 keyint=250 keyint_min=25 scenecut=40 intra_refresh=0 rc_lookahead=40 rc=crf mbtree=1 crf=23.0 qcomp=0.60 qpmin=0 qpmax=69 qpstep=4 ip_ratio=1.40 aq=1:1.00
Output #0, mp4, to 'challenge_video_solution.mp4':
  Metadata:
    encoder         : Lavf57.72.101
    Stream #0:0: Video: h264 (libx264) ([33][0][0][0] / 0x0021), yuv420p, 1280x720, q=-1--1, 29.97 fps, 11988 tbn, 29.97 tbc
    Metadata:
      encoder         : Lavc57.96.101 libx264
    Side data:
      cpb: bitrate max/min/avg: 0/0/0 buffer size: 0 vbv_delay: -1
frame=    3 fps=2.5 q=0.0 size=       0kB time=00:00:00.00 bitrate=N/A speed=   0x    frame=    4 fps=1.7 q=0.0 size=       0kB time=00:00:00.00 bitrate=N/A speed=   0x    frame=    5 fps=1.5 q=0.0 size=       0kB time=00:00:00.00 bitrate=N/A speed=   0x    frame=    6 fps=1.3 q=0.0 size=       0kB time=00:00:00.00 bitrate=N/A speed=   0x    frame=    7 fps=1.3 q=0.0 size=       0kB time=00:00:00.00 bitrate=N/A speed=   0x    frame=    8 fps=1.2 q=0.0 size=       0kB time=00:00:00.00 bitrate=N/A speed=   0x    frame=    9 fps=1.2 q=0.0 size=       0kB time=00:00:00.00 bitrate=N/A speed=   0x    frame=   10 fps=1.1 q=0.0 size=       0kB time=00:00:00.00 bitrate=N/A speed=   0x    frame=   11 fps=1.1 q=0.0 size=       0kB time=00:00:00.00 bitrate=N/A speed=   0x    frame=   12 fps=1.1 q=0.0 size=       0kB time=00:00:00.00 bitrate=N/A speed=   0x    frame=   13 fps=1.1 q=0.0 size=       0kB time=00:00:00.00 bitrate=N/A speed=   0x    frame=   14 fps=1.1 q=0.0 size=       0kB time=00:00:00.00 bitrate=N/A speed=   0x    frame=   15 fps=1.1 q=0.0 size=       0kB time=00:00:00.00 bitrate=N/A speed=   0x    frame=   16 fps=1.1 q=0.0 size=       0kB time=00:00:00.00 bitrate=N/A speed=   0x    frame=   17 fps=1.1 q=0.0 size=       0kB time=00:00:00.00 bitrate=N/A speed=   0x    frame=   18 fps=1.1 q=0.0 size=       0kB time=00:00:00.00 bitrate=N/A speed=   0x    frame=   19 fps=1.1 q=0.0 size=       0kB time=00:00:00.00 bitrate=N/A speed=   0x    frame=   20 fps=1.1 q=0.0 size=       0kB time=00:00:00.00 bitrate=N/A speed=   0x    frame=   21 fps=1.1 q=0.0 size=       0kB time=00:00:00.00 bitrate=N/A speed=   0x    frame=   22 fps=1.1 q=0.0 size=       0kB time=00:00:00.00 bitrate=N/A speed=   0x    frame=   23 fps=1.1 q=0.0 size=       0kB time=00:00:00.00 bitrate=N/A speed=   0x    frame=   24 fps=1.1 q=0.0 size=       0kB time=00:00:00.00 bitrate=N/A speed=   0x    frame=   25 fps=1.1 q=0.0 size=       0kB time=00:00:00.00 bitrate=N/A speed=   0x    frame=   26 fps=1.1 q=0.0 size=       0kB time=00:00:00.00 bitrate=N/A speed=   0x    frame=   27 fps=1.1 q=0.0 size=       0kB time=00:00:00.00 bitrate=N/A speed=   0x    frame=   28 fps=1.1 q=0.0 size=       0kB time=00:00:00.00 bitrate=N/A speed=   0x    frame=   29 fps=1.1 q=0.0 size=       0kB time=00:00:00.00 bitrate=N/A speed=   0x    frame=   30 fps=1.1 q=0.0 size=       0kB time=00:00:00.00 bitrate=N/A speed=   0x    frame=   31 fps=1.1 q=0.0 size=       0kB time=00:00:00.00 bitrate=N/A speed=   0x    frame=   32 fps=1.1 q=0.0 size=       0kB time=00:00:00.00 bitrate=N/A speed=   0x    frame=   33 fps=1.1 q=0.0 size=       0kB time=00:00:00.00 bitrate=N/A speed=   0x    frame=   34 fps=1.1 q=0.0 size=       0kB time=00:00:00.00 bitrate=N/A speed=   0x    frame=   35 fps=1.1 q=0.0 size=       0kB time=00:00:00.00 bitrate=N/A speed=   0x    frame=   36 fps=1.1 q=0.0 size=       0kB time=00:00:00.00 bitrate=N/A speed=   0x    frame=   37 fps=1.1 q=0.0 size=       0kB time=00:00:00.00 bitrate=N/A speed=   0x    frame=   38 fps=1.1 q=0.0 size=       0kB time=00:00:00.00 bitrate=N/A speed=   0x    frame=   39 fps=1.1 q=0.0 size=       0kB time=00:00:00.00 bitrate=N/A speed=   0x    frame=   40 fps=1.1 q=0.0 size=       0kB time=00:00:00.00 bitrate=N/A speed=   0x    frame=   41 fps=1.1 q=0.0 size=       0kB time=00:00:00.00 bitrate=N/A speed=   0x    frame=   42 fps=1.1 q=0.0 size=       0kB time=00:00:00.00 bitrate=N/A speed=   0x    frame=   43 fps=1.1 q=0.0 size=       0kB time=00:00:00.00 bitrate=N/A speed=   0x    frame=   44 fps=1.1 q=0.0 size=       0kB time=00:00:00.00 bitrate=N/A speed=   0x    frame=   45 fps=1.2 q=0.0 size=       0kB time=00:00:00.00 bitrate=N/A speed=   0x    frame=   46 fps=1.2 q=0.0 size=       0kB time=00:00:00.00 bitrate=N/A speed=   0x    frame=   47 fps=1.2 q=0.0 size=       0kB time=00:00:00.00 bitrate=N/A speed=   0x    frame=   48 fps=1.2 q=0.0 size=       0kB time=00:00:00.00 bitrate=N/A speed=   0x    frame=   49 fps=1.2 q=0.0 size=       0kB time=00:00:00.00 bitrate=N/A speed=   0x    frame=   50 fps=1.2 q=0.0 size=       0kB time=00:00:00.00 bitrate=N/A speed=   0x    frame=   51 fps=1.2 q=0.0 size=       0kB time=00:00:00.00 bitrate=N/A speed=   0x    frame=   52 fps=1.2 q=0.0 size=       0kB time=00:00:00.00 bitrate=N/A speed=   0x    frame=   53 fps=1.2 q=29.0 size=      50kB time=-00:00:00.06 bitrate=N/A speed=N/A    frame=   54 fps=1.2 q=29.0 size=      72kB time=-00:00:00.03 bitrate=N/A speed=N/A    frame=   55 fps=1.2 q=29.0 size=      83kB time=00:00:00.00 bitrate=8164048.2kbits/s speed=1.74e-06x    frame=   56 fps=1.2 q=29.0 size=      91kB time=00:00:00.03 bitrate=22175.2kbits/s speed=0.000689x    frame=   57 fps=1.2 q=29.0 size=      98kB time=00:00:00.06 bitrate=12036.6kbits/s speed=0.00135x    frame=   58 fps=1.2 q=29.0 size=     120kB time=00:00:00.10 bitrate=9826.9kbits/s speed=0.00199x    frame=   59 fps=1.2 q=29.0 size=     132kB time=00:00:00.13 bitrate=8078.8kbits/s speed=0.00261x    frame=   60 fps=1.2 q=29.0 size=     140kB time=00:00:00.16 bitrate=6867.7kbits/s speed=0.00321x    frame=   61 fps=1.2 q=29.0 size=     148kB time=00:00:00.20 bitrate=6048.2kbits/s speed=0.00379x    frame=   62 fps=1.2 q=29.0 size=     170kB time=00:00:00.23 bitrate=5964.7kbits/s speed=0.00435x    frame=   63 fps=1.2 q=29.0 size=     182kB time=00:00:00.26 bitrate=5574.9kbits/s speed=0.00489x    frame=   64 fps=1.2 q=29.0 size=     190kB time=00:00:00.30 bitrate=5180.4kbits/s speed=0.00541x    frame=   65 fps=1.2 q=29.0 size=     198kB time=00:00:00.33 bitrate=4864.1kbits/s speed=0.00591x    frame=   66 fps=1.2 q=29.0 size=     221kB time=00:00:00.36 bitrate=4938.8kbits/s speed=0.00641x    frame=   67 fps=1.2 q=29.0 size=     232kB time=00:00:00.40 bitrate=4750.4kbits/s speed=0.00689x    frame=   68 fps=1.2 q=29.0 size=     240kB time=00:00:00.43 bitrate=4533.5kbits/s speed=0.00735x    frame=   69 fps=1.2 q=29.0 size=     248kB time=00:00:00.46 bitrate=4350.6kbits/s speed=0.0078x    frame=   70 fps=1.2 q=29.0 size=     270kB time=00:00:00.50 bitrate=4425.7kbits/s speed=0.00824x    frame=   71 fps=1.2 q=29.0 size=     282kB time=00:00:00.53 bitrate=4323.5kbits/s speed=0.00867x    frame=   72 fps=1.2 q=29.0 size=     291kB time=00:00:00.56 bitrate=4196.3kbits/s speed=0.00909x    frame=   73 fps=1.2 q=29.0 size=     299kB time=00:00:00.60 bitrate=4079.5kbits/s speed=0.0095x    frame=   74 fps=1.2 q=29.0 size=     322kB time=00:00:00.63 bitrate=4155.5kbits/s speed=0.0099x    frame=   75 fps=1.2 q=29.0 size=     333kB time=00:00:00.66 bitrate=4092.4kbits/s speed=0.0103x    frame=   76 fps=1.2 q=29.0 size=     342kB time=00:00:00.70 bitrate=4001.4kbits/s speed=0.0107x    frame=   77 fps=1.2 q=29.0 size=     351kB time=00:00:00.73 bitrate=3913.8kbits/s speed=0.011x    frame=   78 fps=1.2 q=29.0 size=     373kB time=00:00:00.76 bitrate=3984.0kbits/s speed=0.0114x    frame=   79 fps=1.2 q=29.0 size=     385kB time=00:00:00.80 bitrate=3936.7kbits/s speed=0.0118x    frame=   80 fps=1.2 q=29.0 size=     393kB time=00:00:00.83 bitrate=3864.0kbits/s speed=0.0121x    frame=   81 fps=1.2 q=29.0 size=     402kB time=00:00:00.86 bitrate=3793.6kbits/s speed=0.0124x    frame=   82 fps=1.2 q=29.0 size=     426kB time=00:00:00.90 bitrate=3868.8kbits/s speed=0.0127x    frame=   83 fps=1.2 q=29.0 size=     438kB time=00:00:00.93 bitrate=3838.3kbits/s speed=0.013x    frame=   84 fps=1.2 q=29.0 size=     446kB time=00:00:00.96 bitrate=3777.0kbits/s speed=0.0133x    frame=   85 fps=1.2 q=29.0 size=     455kB time=00:00:01.00 bitrate=3719.6kbits/s speed=0.0136x    frame=   86 fps=1.2 q=29.0 size=     477kB time=00:00:01.03 bitrate=3776.7kbits/s speed=0.0139x    frame=   87 fps=1.2 q=29.0 size=     488kB time=00:00:01.06 bitrate=3747.6kbits/s speed=0.0142x    frame=   88 fps=1.2 q=29.0 size=     497kB time=00:00:01.10 bitrate=3695.3kbits/s speed=0.0144x    frame=   89 fps=1.2 q=29.0 size=     505kB time=00:00:01.13 bitrate=3649.9kbits/s speed=0.0147x    frame=   90 fps=1.2 q=29.0 size=     529kB time=00:00:01.16 bitrate=3711.1kbits/s speed=0.0149x    frame=   91 fps=1.2 q=29.0 size=     542kB time=00:00:01.20 bitrate=3694.5kbits/s speed=0.0152x    frame=   92 fps=1.2 q=29.0 size=     551kB time=00:00:01.23 bitrate=3655.2kbits/s speed=0.0154x    frame=   93 fps=1.2 q=29.0 size=     560kB time=00:00:01.26 bitrate=3619.9kbits/s speed=0.0157x    frame=   94 fps=1.2 q=29.0 size=     585kB time=00:00:01.30 bitrate=3684.6kbits/s speed=0.0159x    frame=   95 fps=1.1 q=29.0 size=     598kB time=00:00:01.33 bitrate=3670.4kbits/s speed=0.0161x    frame=   96 fps=1.1 q=29.0 size=     607kB time=00:00:01.36 bitrate=3635.7kbits/s speed=0.0163x    frame=   97 fps=1.1 q=29.0 size=     616kB time=00:00:01.40 bitrate=3598.9kbits/s speed=0.0165x    frame=   98 fps=1.1 q=29.0 size=     638kB time=00:00:01.43 bitrate=3644.8kbits/s speed=0.0167x    frame=   99 fps=1.1 q=29.0 size=     651kB time=00:00:01.46 bitrate=3634.4kbits/s speed=0.017x    frame=  100 fps=1.1 q=29.0 size=     660kB time=00:00:01.50 bitrate=3602.2kbits/s speed=0.0172x    frame=  101 fps=1.1 q=29.0 size=     669kB time=00:00:01.53 bitrate=3570.4kbits/s speed=0.0173x    frame=  102 fps=1.1 q=29.0 size=     692kB time=00:00:01.56 bitrate=3612.6kbits/s speed=0.0175x    frame=  103 fps=1.1 q=29.0 size=     703kB time=00:00:01.60 bitrate=3597.6kbits/s speed=0.0176x    frame=  104 fps=1.1 q=29.0 size=     712kB time=00:00:01.63 bitrate=3565.7kbits/s speed=0.0178x    frame=  105 fps=1.1 q=29.0 size=     720kB time=00:00:01.66 bitrate=3536.0kbits/s speed=0.0179x    frame=  106 fps=1.1 q=29.0 size=     742kB time=00:00:01.70 bitrate=3572.9kbits/s speed=0.0181x    frame=  107 fps=1.1 q=29.0 size=     755kB time=00:00:01.73 bitrate=3563.4kbits/s speed=0.0182x    frame=  108 fps=1.1 q=29.0 size=     764kB time=00:00:01.76 bitrate=3536.7kbits/s speed=0.0184x    frame=  109 fps=1.1 q=29.0 size=     772kB time=00:00:01.80 bitrate=3508.9kbits/s speed=0.0186x    frame=  110 fps=1.1 q=29.0 size=     800kB time=00:00:01.83 bitrate=3572.3kbits/s speed=0.0188x    frame=  111 fps=1.1 q=29.0 size=     815kB time=00:00:01.86 bitrate=3572.2kbits/s speed=0.019x    frame=  112 fps=1.1 q=29.0 size=     824kB time=00:00:01.90 bitrate=3549.1kbits/s speed=0.0191x    frame=  113 fps=1.1 q=29.0 size=     835kB time=00:00:01.93 bitrate=3533.1kbits/s speed=0.0193x    frame=  114 fps=1.1 q=29.0 size=     860kB time=00:00:01.96 bitrate=3579.3kbits/s speed=0.0195x    frame=  115 fps=1.1 q=29.0 size=     876kB time=00:00:02.00 bitrate=3584.4kbits/s speed=0.0196x    frame=  116 fps=1.1 q=29.0 size=     887kB time=00:00:02.03 bitrate=3569.8kbits/s speed=0.0198x    frame=  117 fps=1.1 q=29.0 size=     898kB time=00:00:02.06 bitrate=3553.9kbits/s speed=0.0199x    frame=  118 fps=1.1 q=29.0 size=     923kB time=00:00:02.10 bitrate=3597.3kbits/s speed=0.0201x    frame=  119 fps=1.1 q=29.0 size=     938kB time=00:00:02.13 bitrate=3598.4kbits/s speed=0.0202x    frame=  120 fps=1.1 q=29.0 size=     950kB time=00:00:02.16 bitrate=3588.3kbits/s speed=0.0204x    frame=  121 fps=1.1 q=29.0 size=     960kB time=00:00:02.20 bitrate=3572.8kbits/s speed=0.0205x    frame=  122 fps=1.1 q=29.0 size=     985kB time=00:00:02.23 bitrate=3608.0kbits/s speed=0.0206x    frame=  123 fps=1.1 q=29.0 size=     998kB time=00:00:02.26 bitrate=3603.6kbits/s speed=0.0208x    frame=  124 fps=1.1 q=29.0 size=    1009kB time=00:00:02.30 bitrate=3588.6kbits/s speed=0.0209x    frame=  125 fps=1.1 q=29.0 size=    1018kB time=00:00:02.33 bitrate=3569.4kbits/s speed=0.021x    frame=  126 fps=1.1 q=29.0 size=    1042kB time=00:00:02.36 bitrate=3602.8kbits/s speed=0.0212x    frame=  127 fps=1.1 q=29.0 size=    1054kB time=00:00:02.40 bitrate=3595.5kbits/s speed=0.0213x    frame=  128 fps=1.1 q=29.0 size=    1064kB time=00:00:02.43 bitrate=3577.1kbits/s speed=0.0214x    frame=  129 fps=1.1 q=29.0 size=    1072kB time=00:00:02.46 bitrate=3557.3kbits/s speed=0.0216x    frame=  130 fps=1.1 q=29.0 size=    1097kB time=00:00:02.50 bitrate=3592.3kbits/s speed=0.0217x    frame=  131 fps=1.1 q=29.0 size=    1113kB time=00:00:02.53 bitrate=3594.0kbits/s speed=0.0218x    frame=  132 fps=1.1 q=29.0 size=    1121kB time=00:00:02.56 bitrate=3575.7kbits/s speed=0.022x    frame=  133 fps=1.1 q=29.0 size=    1132kB time=00:00:02.60 bitrate=3562.5kbits/s speed=0.0221x    frame=  134 fps=1.1 q=29.0 size=    1157kB time=00:00:02.63 bitrate=3595.4kbits/s speed=0.0222x    frame=  135 fps=1.1 q=29.0 size=    1172kB time=00:00:02.66 bitrate=3595.3kbits/s speed=0.0223x    frame=  136 fps=1.1 q=29.0 size=    1182kB time=00:00:02.70 bitrate=3581.7kbits/s speed=0.0225x    frame=  137 fps=1.1 q=29.0 size=    1192kB time=00:00:02.73 bitrate=3569.0kbits/s speed=0.0226x    frame=  138 fps=1.1 q=29.0 size=    1217kB time=00:00:02.76 bitrate=3599.1kbits/s speed=0.0227x    frame=  139 fps=1.1 q=29.0 size=    1232kB time=00:00:02.80 bitrate=3599.5kbits/s speed=0.0228x    frame=  140 fps=1.1 q=29.0 size=    1242kB time=00:00:02.83 bitrate=3586.4kbits/s speed=0.0229x    frame=  141 fps=1.1 q=29.0 size=    1252kB time=00:00:02.86 bitrate=3573.9kbits/s speed=0.023x    frame=  142 fps=1.1 q=29.0 size=    1278kB time=00:00:02.90 bitrate=3606.4kbits/s speed=0.0231x    frame=  143 fps=1.1 q=29.0 size=    1293kB time=00:00:02.93 bitrate=3605.9kbits/s speed=0.0232x    frame=  144 fps=1.1 q=29.0 size=    1303kB time=00:00:02.96 bitrate=3594.0kbits/s speed=0.0233x    frame=  145 fps=1.1 q=29.0 size=    1312kB time=00:00:03.00 bitrate=3579.3kbits/s speed=0.0234x    frame=  146 fps=1.1 q=29.0 size=    1336kB time=00:00:03.03 bitrate=3603.3kbits/s speed=0.0235x    frame=  147 fps=1.1 q=29.0 size=    1349kB time=00:00:03.06 bitrate=3600.8kbits/s speed=0.0236x    frame=  148 fps=1.1 q=29.0 size=    1359kB time=00:00:03.10 bitrate=3588.1kbits/s speed=0.0237x    frame=  149 fps=1.1 q=29.0 size=    1369kB time=00:00:03.13 bitrate=3575.1kbits/s speed=0.0238x    frame=  150 fps=1.1 q=29.0 size=    1392kB time=00:00:03.16 bitrate=3596.0kbits/s speed=0.0239x    frame=  151 fps=1.1 q=29.0 size=    1406kB time=00:00:03.20 bitrate=3594.9kbits/s speed=0.024x    frame=  152 fps=1.1 q=29.0 size=    1415kB time=00:00:03.23 bitrate=3581.9kbits/s speed=0.0241x    frame=  153 fps=1.1 q=29.0 size=    1425kB time=00:00:03.27 bitrate=3569.9kbits/s speed=0.0242x    frame=  154 fps=1.1 q=29.0 size=    1450kB time=00:00:03.30 bitrate=3596.4kbits/s speed=0.0243x    frame=  155 fps=1.1 q=29.0 size=    1465kB time=00:00:03.33 bitrate=3597.1kbits/s speed=0.0244x    frame=  156 fps=1.1 q=29.0 size=    1476kB time=00:00:03.37 bitrate=3586.8kbits/s speed=0.0244x    frame=  157 fps=1.1 q=29.0 size=    1487kB time=00:00:03.40 bitrate=3578.2kbits/s speed=0.0245x    frame=  158 fps=1.1 q=29.0 size=    1512kB time=00:00:03.43 bitrate=3604.4kbits/s speed=0.0246x    frame=  159 fps=1.1 q=29.0 size=    1529kB time=00:00:03.47 bitrate=3609.5kbits/s speed=0.0247x    frame=  160 fps=1.1 q=29.0 size=    1541kB time=00:00:03.50 bitrate=3603.5kbits/s speed=0.0248x    frame=  161 fps=1.1 q=29.0 size=    1553kB time=00:00:03.53 bitrate=3597.8kbits/s speed=0.0249x    frame=  162 fps=1.1 q=29.0 size=    1580kB time=00:00:03.57 bitrate=3624.7kbits/s speed=0.0249x    frame=  163 fps=1.1 q=29.0 size=    1596kB time=00:00:03.60 bitrate=3628.4kbits/s speed=0.025x    frame=  164 fps=1.1 q=29.0 size=    1608kB time=00:00:03.63 bitrate=3622.6kbits/s speed=0.0251x    frame=  165 fps=1.1 q=29.0 size=    1621kB time=00:00:03.67 bitrate=3617.3kbits/s speed=0.0252x    frame=  166 fps=1.1 q=29.0 size=    1648kB time=00:00:03.70 bitrate=3645.1kbits/s speed=0.0253x    frame=  167 fps=1.1 q=29.0 size=    1665kB time=00:00:03.73 bitrate=3650.4kbits/s speed=0.0254x    frame=  168 fps=1.1 q=29.0 size=    1677kB time=00:00:03.77 bitrate=3643.5kbits/s speed=0.0254x    frame=  169 fps=1.1 q=29.0 size=    1689kB time=00:00:03.80 bitrate=3636.9kbits/s speed=0.0255x    frame=  170 fps=1.1 q=29.0 size=    1717kB time=00:00:03.83 bitrate=3665.5kbits/s speed=0.0256x    frame=  171 fps=1.1 q=29.0 size=    1732kB time=00:00:03.87 bitrate=3666.6kbits/s speed=0.0256x    frame=  172 fps=1.1 q=29.0 size=    1744kB time=00:00:03.90 bitrate=3658.8kbits/s speed=0.0257x    frame=  173 fps=1.1 q=29.0 size=    1756kB time=00:00:03.93 bitrate=3652.5kbits/s speed=0.0258x    frame=  174 fps=1.1 q=29.0 size=    1778kB time=00:00:03.97 bitrate=3668.6kbits/s speed=0.0259x    frame=  175 fps=1.1 q=29.0 size=    1792kB time=00:00:04.00 bitrate=3666.5kbits/s speed=0.0259x    frame=  176 fps=1.1 q=29.0 size=    1803kB time=00:00:04.03 bitrate=3658.2kbits/s speed=0.026x    frame=  177 fps=1.1 q=29.0 size=    1813kB time=00:00:04.07 bitrate=3648.0kbits/s speed=0.0261x    frame=  178 fps=1.1 q=29.0 size=    1836kB time=00:00:04.10 bitrate=3664.7kbits/s speed=0.0261x    frame=  179 fps=1.1 q=29.0 size=    1851kB time=00:00:04.13 bitrate=3664.9kbits/s speed=0.0261x    frame=  180 fps=1.1 q=29.0 size=    1861kB time=00:00:04.17 bitrate=3655.5kbits/s speed=0.0262x    frame=  181 fps=1.1 q=29.0 size=    1872kB time=00:00:04.20 bitrate=3647.5kbits/s speed=0.0262x    frame=  182 fps=1.1 q=29.0 size=    1899kB time=00:00:04.23 bitrate=3670.6kbits/s speed=0.0263x    frame=  183 fps=1.1 q=29.0 size=    1916kB time=00:00:04.27 bitrate=3674.4kbits/s speed=0.0264x    frame=  184 fps=1.1 q=29.0 size=    1928kB time=00:00:04.30 bitrate=3669.1kbits/s speed=0.0264x    frame=  185 fps=1.1 q=29.0 size=    1941kB time=00:00:04.33 bitrate=3664.7kbits/s speed=0.0265x    frame=  186 fps=1.1 q=29.0 size=    1971kB time=00:00:04.37 bitrate=3693.7kbits/s speed=0.0266x    frame=  187 fps=1.1 q=29.0 size=    1988kB time=00:00:04.40 bitrate=3697.9kbits/s speed=0.0266x    frame=  188 fps=1.1 q=29.0 size=    2000kB time=00:00:04.43 bitrate=3691.6kbits/s speed=0.0267x    frame=  189 fps=1.1 q=29.0 size=    2011kB time=00:00:04.47 bitrate=3685.4kbits/s speed=0.0267x    frame=  190 fps=1.1 q=29.0 size=    2036kB time=00:00:04.50 bitrate=3702.0kbits/s speed=0.0268x    frame=  191 fps=1.1 q=29.0 size=    2046kB time=00:00:04.53 bitrate=3694.1kbits/s speed=0.0268x    frame=  192 fps=1.1 q=29.0 size=    2079kB time=00:00:04.57 bitrate=3725.0kbits/s speed=0.0269x    frame=  193 fps=1.1 q=29.0 size=    2093kB time=00:00:04.60 bitrate=3723.8kbits/s speed=0.0269x    frame=  194 fps=1.1 q=29.0 size=    2102kB time=00:00:04.63 bitrate=3713.0kbits/s speed=0.027x    frame=  195 fps=1.1 q=29.0 size=    2112kB time=00:00:04.67 bitrate=3703.2kbits/s speed=0.027x    frame=  196 fps=1.1 q=29.0 size=    2137kB time=00:00:04.70 bitrate=3721.1kbits/s speed=0.027x    frame=  197 fps=1.1 q=29.0 size=    2150kB time=00:00:04.73 bitrate=3716.7kbits/s speed=0.0271x    frame=  198 fps=1.1 q=29.0 size=    2158kB time=00:00:04.77 bitrate=3705.1kbits/s speed=0.0271x    frame=  199 fps=1.1 q=29.0 size=    2167kB time=00:00:04.80 bitrate=3693.8kbits/s speed=0.0272x    frame=  200 fps=1.1 q=29.0 size=    2185kB time=00:00:04.83 bitrate=3699.5kbits/s speed=0.0272x    frame=  201 fps=1.1 q=29.0 size=    2202kB time=00:00:04.87 bitrate=3702.0kbits/s speed=0.0272x    frame=  202 fps=1.1 q=29.0 size=    2220kB time=00:00:04.90 bitrate=3707.2kbits/s speed=0.0273x    frame=  203 fps=1.1 q=29.0 size=    2241kB time=00:00:04.93 bitrate=3717.4kbits/s speed=0.0273x    frame=  204 fps=1.1 q=29.0 size=    2258kB time=00:00:04.97 bitrate=3719.9kbits/s speed=0.0274x    frame=  205 fps=1.1 q=29.0 size=    2274kB time=00:00:05.00 bitrate=3721.6kbits/s speed=0.0274x    frame=  206 fps=1.1 q=29.0 size=    2295kB time=00:00:05.03 bitrate=3731.6kbits/s speed=0.0274x    frame=  207 fps=1.1 q=29.0 size=    2306kB time=00:00:05.07 bitrate=3724.9kbits/s speed=0.0274x    frame=  208 fps=1.1 q=29.0 size=    2336kB time=00:00:05.10 bitrate=3749.2kbits/s speed=0.0275x    frame=  209 fps=1.1 q=29.0 size=    2354kB time=00:00:05.13 bitrate=3752.1kbits/s speed=0.0275x    frame=  210 fps=1.1 q=29.0 size=    2364kB time=00:00:05.17 bitrate=3744.8kbits/s speed=0.0276x    frame=  211 fps=1.1 q=29.0 size=    2375kB time=00:00:05.20 bitrate=3737.4kbits/s speed=0.0276x    frame=  212 fps=1.1 q=29.0 size=    2403kB time=00:00:05.23 bitrate=3757.7kbits/s speed=0.0276x    frame=  213 fps=1.1 q=29.0 size=    2416kB time=00:00:05.27 bitrate=3754.1kbits/s speed=0.0277x    frame=  214 fps=1.1 q=29.0 size=    2426kB time=00:00:05.30 bitrate=3745.8kbits/s speed=0.0277x    frame=  215 fps=1.1 q=29.0 size=    2435kB time=00:00:05.33 bitrate=3736.2kbits/s speed=0.0277x    frame=  216 fps=1.1 q=29.0 size=    2460kB time=00:00:05.37 bitrate=3750.5kbits/s speed=0.0278x    frame=  217 fps=1.1 q=29.0 size=    2472kB time=00:00:05.40 bitrate=3746.2kbits/s speed=0.0278x    frame=  218 fps=1.1 q=29.0 size=    2481kB time=00:00:05.43 bitrate=3737.0kbits/s speed=0.0278x    frame=  219 fps=1.1 q=29.0 size=    2490kB time=00:00:05.47 bitrate=3727.0kbits/s speed=0.0278x    frame=  220 fps=1.1 q=29.0 size=    2516kB time=00:00:05.50 bitrate=3743.1kbits/s speed=0.0279x    frame=  221 fps=1.1 q=29.0 size=    2528kB time=00:00:05.53 bitrate=3738.7kbits/s speed=0.0279x    frame=  222 fps=1.1 q=29.0 size=    2536kB time=00:00:05.57 bitrate=3728.6kbits/s speed=0.028x    frame=  223 fps=1.1 q=29.0 size=    2545kB time=00:00:05.60 bitrate=3718.7kbits/s speed=0.028x    frame=  224 fps=1.1 q=29.0 size=    2568kB time=00:00:05.63 bitrate=3731.0kbits/s speed=0.0281x    frame=  225 fps=1.1 q=29.0 size=    2580kB time=00:00:05.67 bitrate=3725.6kbits/s speed=0.0281x    frame=  226 fps=1.1 q=29.0 size=    2588kB time=00:00:05.70 bitrate=3715.9kbits/s speed=0.0281x    frame=  227 fps=1.1 q=29.0 size=    2596kB time=00:00:05.73 bitrate=3705.6kbits/s speed=0.0282x    frame=  228 fps=1.1 q=29.0 size=    2622kB time=00:00:05.77 bitrate=3720.9kbits/s speed=0.0282x    frame=  229 fps=1.1 q=29.0 size=    2633kB time=00:00:05.80 bitrate=3715.5kbits/s speed=0.0282x    frame=  230 fps=1.1 q=29.0 size=    2641kB time=00:00:05.83 bitrate=3704.5kbits/s speed=0.0282x    frame=  231 fps=1.1 q=29.0 size=    2649kB time=00:00:05.87 bitrate=3694.9kbits/s speed=0.0282x    frame=  232 fps=1.1 q=29.0 size=    2675kB time=00:00:05.90 bitrate=3710.6kbits/s speed=0.0283x    frame=  233 fps=1.1 q=29.0 size=    2688kB time=00:00:05.93 bitrate=3706.8kbits/s speed=0.0283x    frame=  234 fps=1.1 q=29.0 size=    2695kB time=00:00:05.97 bitrate=3697.0kbits/s speed=0.0283x    frame=  235 fps=1.1 q=29.0 size=    2703kB time=00:00:06.00 bitrate=3687.2kbits/s speed=0.0283x    frame=  236 fps=1.1 q=29.0 size=    2728kB time=00:00:06.03 bitrate=3700.5kbits/s speed=0.0283x    frame=  237 fps=1.1 q=29.0 size=    2741kB time=00:00:06.07 bitrate=3697.3kbits/s speed=0.0283x    frame=  238 fps=1.1 q=29.0 size=    2750kB time=00:00:06.10 bitrate=3689.0kbits/s speed=0.0284x    frame=  239 fps=1.1 q=29.0 size=    2758kB time=00:00:06.13 bitrate=3679.9kbits/s speed=0.0284x    frame=  240 fps=1.1 q=29.0 size=    2783kB time=00:00:06.17 bitrate=3693.1kbits/s speed=0.0285x    frame=  241 fps=1.1 q=29.0 size=    2795kB time=00:00:06.20 bitrate=3689.7kbits/s speed=0.0285x    frame=  242 fps=1.1 q=29.0 size=    2803kB time=00:00:06.23 bitrate=3680.2kbits/s speed=0.0285x    frame=  243 fps=1.1 q=29.0 size=    2812kB time=00:00:06.27 bitrate=3671.9kbits/s speed=0.0286x    frame=  244 fps=1.1 q=29.0 size=    2838kB time=00:00:06.30 bitrate=3686.4kbits/s speed=0.0286x    frame=  245 fps=1.1 q=29.0 size=    2850kB time=00:00:06.33 bitrate=3683.2kbits/s speed=0.0286x    frame=  246 fps=1.1 q=29.0 size=    2859kB time=00:00:06.37 bitrate=3675.2kbits/s speed=0.0287x    frame=  247 fps=1.1 q=29.0 size=    2868kB time=00:00:06.40 bitrate=3666.8kbits/s speed=0.0287x    frame=  248 fps=1.1 q=29.0 size=    2897kB time=00:00:06.43 bitrate=3684.9kbits/s speed=0.0287x    frame=  249 fps=1.1 q=29.0 size=    2910kB time=00:00:06.47 bitrate=3682.4kbits/s speed=0.0288x    frame=  250 fps=1.1 q=29.0 size=    2918kB time=00:00:06.50 bitrate=3673.9kbits/s speed=0.0288x    frame=  251 fps=1.1 q=29.0 size=    2927kB time=00:00:06.53 bitrate=3666.7kbits/s speed=0.0289x    frame=  252 fps=1.1 q=29.0 size=    2952kB time=00:00:06.57 bitrate=3679.4kbits/s speed=0.0289x    frame=  253 fps=1.1 q=29.0 size=    2965kB time=00:00:06.60 bitrate=3676.9kbits/s speed=0.0289x    frame=  254 fps=1.1 q=29.0 size=    2974kB time=00:00:06.64 bitrate=3669.6kbits/s speed=0.029x    frame=  255 fps=1.1 q=29.0 size=    2982kB time=00:00:06.67 bitrate=3660.8kbits/s speed=0.029x    frame=  256 fps=1.1 q=29.0 size=    3006kB time=00:00:06.70 bitrate=3672.1kbits/s speed=0.029x    frame=  257 fps=1.1 q=29.0 size=    3018kB time=00:00:06.74 bitrate=3667.9kbits/s speed=0.0291x    frame=  258 fps=1.1 q=29.0 size=    3026kB time=00:00:06.77 bitrate=3659.4kbits/s speed=0.0291x    frame=  259 fps=1.1 q=29.0 size=    3033kB time=00:00:06.80 bitrate=3650.3kbits/s speed=0.0291x    frame=  260 fps=1.1 q=29.0 size=    3060kB time=00:00:06.84 bitrate=3665.1kbits/s speed=0.0292x    frame=  261 fps=1.1 q=29.0 size=    3072kB time=00:00:06.87 bitrate=3661.0kbits/s speed=0.0292x    frame=  262 fps=1.1 q=29.0 size=    3080kB time=00:00:06.90 bitrate=3652.6kbits/s speed=0.0292x    frame=  263 fps=1.1 q=29.0 size=    3087kB time=00:00:06.94 bitrate=3643.9kbits/s speed=0.0293x    frame=  264 fps=1.1 q=29.0 size=    3110kB time=00:00:06.97 bitrate=3653.4kbits/s speed=0.0293x    frame=  265 fps=1.1 q=29.0 size=    3122kB time=00:00:07.00 bitrate=3649.7kbits/s speed=0.0293x    frame=  266 fps=1.1 q=29.0 size=    3129kB time=00:00:07.04 bitrate=3641.3kbits/s speed=0.0294x    frame=  267 fps=1.1 q=29.0 size=    3137kB time=00:00:07.07 bitrate=3632.8kbits/s speed=0.0294x    frame=  268 fps=1.1 q=29.0 size=    3161kB time=00:00:07.10 bitrate=3643.5kbits/s speed=0.0294x    frame=  269 fps=1.1 q=29.0 size=    3173kB time=00:00:07.14 bitrate=3639.9kbits/s speed=0.0295x    frame=  270 fps=1.1 q=29.0 size=    3180kB time=00:00:07.17 bitrate=3630.8kbits/s speed=0.0295x    frame=  271 fps=1.1 q=29.0 size=    3187kB time=00:00:07.20 bitrate=3622.5kbits/s speed=0.0295x    frame=  272 fps=1.1 q=29.0 size=    3211kB time=00:00:07.24 bitrate=3632.8kbits/s speed=0.0296x    frame=  273 fps=1.1 q=29.0 size=    3222kB time=00:00:07.27 bitrate=3628.8kbits/s speed=0.0296x    frame=  274 fps=1.1 q=29.0 size=    3230kB time=00:00:07.30 bitrate=3621.1kbits/s speed=0.0296x    frame=  275 fps=1.1 q=29.0 size=    3238kB time=00:00:07.34 bitrate=3613.3kbits/s speed=0.0297x    frame=  276 fps=1.1 q=29.0 size=    3262kB time=00:00:07.37 bitrate=3623.7kbits/s speed=0.0297x    frame=  277 fps=1.1 q=29.0 size=    3273kB time=00:00:07.40 bitrate=3620.2kbits/s speed=0.0297x    frame=  278 fps=1.1 q=29.0 size=    3281kB time=00:00:07.44 bitrate=3612.3kbits/s speed=0.0298x    frame=  279 fps=1.1 q=29.0 size=    3289kB time=00:00:07.47 bitrate=3604.8kbits/s speed=0.0298x    frame=  280 fps=1.1 q=29.0 size=    3313kB time=00:00:07.50 bitrate=3615.0kbits/s speed=0.0298x    frame=  281 fps=1.1 q=29.0 size=    3324kB time=00:00:07.54 bitrate=3611.5kbits/s speed=0.0299x    frame=  282 fps=1.1 q=29.0 size=    3333kB time=00:00:07.57 bitrate=3604.4kbits/s speed=0.0299x    frame=  283 fps=1.1 q=29.0 size=    3340kB time=00:00:07.60 bitrate=3596.3kbits/s speed=0.0299x    frame=  284 fps=1.1 q=29.0 size=    3364kB time=00:00:07.64 bitrate=3606.0kbits/s speed=0.0299x    frame=  285 fps=1.1 q=29.0 size=    3375kB time=00:00:07.67 bitrate=3602.3kbits/s speed=0.03x    frame=  286 fps=1.1 q=29.0 size=    3382kB time=00:00:07.70 bitrate=3594.8kbits/s speed=0.03x    frame=  287 fps=1.1 q=29.0 size=    3390kB time=00:00:07.74 bitrate=3587.5kbits/s speed=0.03x    frame=  288 fps=1.1 q=29.0 size=    3413kB time=00:00:07.77 bitrate=3595.8kbits/s speed=0.0301x    frame=  289 fps=1.1 q=29.0 size=    3423kB time=00:00:07.80 bitrate=3591.9kbits/s speed=0.0301x    frame=  290 fps=1.1 q=29.0 size=    3432kB time=00:00:07.84 bitrate=3585.2kbits/s speed=0.0301x    frame=  291 fps=1.1 q=29.0 size=    3440kB time=00:00:07.87 bitrate=3578.1kbits/s speed=0.0302x    frame=  292 fps=1.1 q=29.0 size=    3464kB time=00:00:07.90 bitrate=3588.6kbits/s speed=0.0302x    frame=  293 fps=1.1 q=29.0 size=    3476kB time=00:00:07.94 bitrate=3585.2kbits/s speed=0.0302x    frame=  294 fps=1.1 q=29.0 size=    3484kB time=00:00:07.97 bitrate=3578.4kbits/s speed=0.0302x    frame=  295 fps=1.1 q=29.0 size=    3491kB time=00:00:08.00 bitrate=3571.6kbits/s speed=0.0303x    frame=  296 fps=1.1 q=26.0 size=    3515kB time=00:00:08.04 bitrate=3580.4kbits/s speed=0.0303x    frame=  297 fps=1.1 q=29.0 size=    3526kB time=00:00:08.07 bitrate=3576.8kbits/s speed=0.0303x    frame=  298 fps=1.1 q=29.0 size=    3533kB time=00:00:08.10 bitrate=3569.3kbits/s speed=0.0304x    frame=  299 fps=1.1 q=29.0 size=    3541kB time=00:00:08.14 bitrate=3562.5kbits/s speed=0.0304x    frame=  300 fps=1.1 q=29.0 size=    3554kB time=00:00:08.17 bitrate=3561.7kbits/s speed=0.0304x    frame=  301 fps=1.1 q=29.0 size=    3563kB time=00:00:08.20 bitrate=3555.5kbits/s speed=0.0304x    frame=  302 fps=1.1 q=29.0 size=    3571kB time=00:00:08.24 bitrate=3549.4kbits/s speed=0.0304x    frame=  303 fps=1.1 q=29.0 size=    3630kB time=00:00:08.27 bitrate=3593.9kbits/s speed=0.0304x    frame=  304 fps=1.1 q=29.0 size=    3653kB time=00:00:08.30 bitrate=3601.7kbits/s speed=0.0304x    frame=  305 fps=1.1 q=29.0 size=    3665kB time=00:00:08.34 bitrate=3599.2kbits/s speed=0.0305x    frame=  306 fps=1.1 q=29.0 size=    3673kB time=00:00:08.37 bitrate=3592.3kbits/s speed=0.0305x    frame=  307 fps=1.1 q=29.0 size=    3681kB time=00:00:08.40 bitrate=3586.0kbits/s speed=0.0305x    frame=  308 fps=1.1 q=29.0 size=    3702kB time=00:00:08.44 bitrate=3592.0kbits/s speed=0.0305x    frame=  309 fps=1.1 q=29.0 size=    3714kB time=00:00:08.47 bitrate=3589.7kbits/s speed=0.0305x    frame=  310 fps=1.1 q=29.0 size=    3722kB time=00:00:08.50 bitrate=3583.4kbits/s speed=0.0306x    frame=  311 fps=1.1 q=29.0 size=    3729kB time=00:00:08.54 bitrate=3576.4kbits/s speed=0.0306x    frame=  312 fps=1.1 q=29.0 size=    3752kB time=00:00:08.57 bitrate=3583.9kbits/s speed=0.0306x    frame=  313 fps=1.1 q=29.0 size=    3763kB time=00:00:08.60 bitrate=3580.9kbits/s speed=0.0306x    frame=  314 fps=1.1 q=29.0 size=    3771kB time=00:00:08.64 bitrate=3574.7kbits/s speed=0.0306x    frame=  315 fps=1.1 q=29.0 size=    3779kB time=00:00:08.67 bitrate=3568.4kbits/s speed=0.0307x    frame=  316 fps=1.1 q=29.0 size=    3802kB time=00:00:08.70 bitrate=3576.5kbits/s speed=0.0307x    frame=  317 fps=1.1 q=29.0 size=    3814kB time=00:00:08.74 bitrate=3573.6kbits/s speed=0.0307x    frame=  318 fps=1.1 q=29.0 size=    3822kB time=00:00:08.77 bitrate=3567.8kbits/s speed=0.0307x    frame=  319 fps=1.1 q=29.0 size=    3830kB time=00:00:08.80 bitrate=3562.1kbits/s speed=0.0308x    frame=  320 fps=1.1 q=29.0 size=    3856kB time=00:00:08.84 bitrate=3572.1kbits/s speed=0.0308x    frame=  321 fps=1.1 q=29.0 size=    3868kB time=00:00:08.87 bitrate=3570.0kbits/s speed=0.0308x    frame=  322 fps=1.1 q=29.0 size=    3877kB time=00:00:08.90 bitrate=3564.7kbits/s speed=0.0308x    frame=  323 fps=1.1 q=29.0 size=    3885kB time=00:00:08.94 bitrate=3559.0kbits/s speed=0.0308x    frame=  324 fps=1.1 q=29.0 size=    3906kB time=00:00:08.97 bitrate=3564.6kbits/s speed=0.0309x    frame=  325 fps=1.1 q=29.0 size=    3916kB time=00:00:09.00 bitrate=3561.3kbits/s speed=0.0309x    frame=  326 fps=1.1 q=29.0 size=    3924kB time=00:00:09.04 bitrate=3555.1kbits/s speed=0.0309x    frame=  327 fps=1.1 q=29.0 size=    3932kB time=00:00:09.07 bitrate=3549.0kbits/s speed=0.0309x    frame=  328 fps=1.1 q=29.0 size=    3954kB time=00:00:09.10 bitrate=3555.9kbits/s speed=0.0309x    frame=  329 fps=1.1 q=29.0 size=    3965kB time=00:00:09.14 bitrate=3552.9kbits/s speed=0.0309x    frame=  330 fps=1.1 q=29.0 size=    3973kB time=00:00:09.17 bitrate=3546.8kbits/s speed=0.0309x    frame=  331 fps=1.1 q=29.0 size=    3981kB time=00:00:09.20 bitrate=3541.1kbits/s speed=0.0309x    frame=  332 fps=1.1 q=29.0 size=    4005kB time=00:00:09.24 bitrate=3550.0kbits/s speed=0.0309x    frame=  333 fps=1.1 q=29.0 size=    4016kB time=00:00:09.27 bitrate=3547.1kbits/s speed=0.0309x    frame=  334 fps=1.1 q=29.0 size=    4024kB time=00:00:09.30 bitrate=3541.3kbits/s speed=0.0309x    frame=  335 fps=1.1 q=29.0 size=    4033kB time=00:00:09.34 bitrate=3536.3kbits/s speed=0.0309x    frame=  336 fps=1.1 q=29.0 size=    4054kB time=00:00:09.37 bitrate=3541.7kbits/s speed=0.0309x    frame=  337 fps=1.1 q=29.0 size=    4065kB time=00:00:09.40 bitrate=3539.3kbits/s speed=0.0309x    frame=  338 fps=1.1 q=29.0 size=    4073kB time=00:00:09.44 bitrate=3533.8kbits/s speed=0.0309x    frame=  339 fps=1.1 q=29.0 size=    4081kB time=00:00:09.47 bitrate=3527.6kbits/s speed=0.0309x    frame=  340 fps=1.1 q=29.0 size=    4102kB time=00:00:09.50 bitrate=3533.5kbits/s speed=0.031x    frame=  341 fps=1.1 q=29.0 size=    4112kB time=00:00:09.54 bitrate=3529.5kbits/s speed=0.031x    frame=  342 fps=1.1 q=29.0 size=    4119kB time=00:00:09.57 bitrate=3523.4kbits/s speed=0.031x    frame=  343 fps=1.1 q=29.0 size=    4126kB time=00:00:09.60 bitrate=3517.3kbits/s speed=0.031x    frame=  344 fps=1.1 q=29.0 size=    4148kB time=00:00:09.64 bitrate=3523.4kbits/s speed=0.031x    frame=  345 fps=1.1 q=29.0 size=    4158kB time=00:00:09.67 bitrate=3520.4kbits/s speed=0.031x    frame=  346 fps=1.1 q=29.0 size=    4166kB time=00:00:09.70 bitrate=3514.8kbits/s speed=0.031x    frame=  347 fps=1.1 q=29.0 size=    4174kB time=00:00:09.74 bitrate=3509.5kbits/s speed=0.031x    frame=  348 fps=1.1 q=29.0 size=    4195kB time=00:00:09.77 bitrate=3515.5kbits/s speed=0.031x    frame=  349 fps=1.1 q=29.0 size=    4207kB time=00:00:09.80 bitrate=3513.0kbits/s speed=0.031x    frame=  350 fps=1.1 q=29.0 size=    4215kB time=00:00:09.84 bitrate=3507.8kbits/s speed=0.031x    frame=  351 fps=1.1 q=29.0 size=    4222kB time=00:00:09.87 bitrate=3502.3kbits/s speed=0.031x    frame=  352 fps=1.1 q=29.0 size=    4244kB time=00:00:09.90 bitrate=3508.4kbits/s speed=0.031x    frame=  353 fps=1.1 q=29.0 size=    4255kB time=00:00:09.94 bitrate=3505.6kbits/s speed=0.0311x    frame=  354 fps=1.1 q=29.0 size=    4263kB time=00:00:09.97 bitrate=3500.1kbits/s speed=0.0311x    frame=  355 fps=1.1 q=29.0 size=    4270kB time=00:00:10.01 bitrate=3494.5kbits/s speed=0.0311x    frame=  356 fps=1.1 q=29.0 size=    4292kB time=00:00:10.04 bitrate=3500.7kbits/s speed=0.0311x    frame=  357 fps=1.1 q=29.0 size=    4302kB time=00:00:10.07 bitrate=3497.6kbits/s speed=0.0311x    frame=  358 fps=1.1 q=29.0 size=    4310kB time=00:00:10.11 bitrate=3492.2kbits/s speed=0.031x    frame=  359 fps=1.1 q=29.0 size=    4317kB time=00:00:10.14 bitrate=3486.7kbits/s speed=0.031x    frame=  360 fps=1.1 q=29.0 size=    4339kB time=00:00:10.17 bitrate=3492.7kbits/s speed=0.031x    frame=  361 fps=1.1 q=29.0 size=    4350kB time=00:00:10.21 bitrate=3490.0kbits/s speed=0.031x    frame=  362 fps=1.1 q=29.0 size=    4357kB time=00:00:10.24 bitrate=3484.3kbits/s speed=0.0309x    frame=  363 fps=1.1 q=29.0 size=    4365kB time=00:00:10.27 bitrate=3479.2kbits/s speed=0.0309x    frame=  364 fps=1.1 q=29.0 size=    4386kB time=00:00:10.31 bitrate=3484.7kbits/s speed=0.031x    frame=  365 fps=1.1 q=29.0 size=    4397kB time=00:00:10.34 bitrate=3482.5kbits/s speed=0.031x    frame=  366 fps=1.1 q=29.0 size=    4405kB time=00:00:10.37 bitrate=3477.2kbits/s speed=0.031x    frame=  367 fps=1.1 q=29.0 size=    4412kB time=00:00:10.41 bitrate=3471.8kbits/s speed=0.031x    frame=  368 fps=1.1 q=29.0 size=    4433kB time=00:00:10.44 bitrate=3477.5kbits/s speed=0.031x    frame=  369 fps=1.1 q=29.0 size=    4445kB time=00:00:10.47 bitrate=3475.2kbits/s speed=0.0309x    frame=  370 fps=1.1 q=29.0 size=    4452kB time=00:00:10.51 bitrate=3470.2kbits/s speed=0.0308x    frame=  371 fps=1.1 q=29.0 size=    4460kB time=00:00:10.54 bitrate=3465.5kbits/s speed=0.0308x    frame=  372 fps=1.1 q=29.0 size=    4482kB time=00:00:10.57 bitrate=3471.4kbits/s speed=0.0308x    frame=  373 fps=1.1 q=29.0 size=    4495kB time=00:00:10.61 bitrate=3470.0kbits/s speed=0.0309x    frame=  374 fps=1.1 q=29.0 size=    4502kB time=00:00:10.64 bitrate=3465.1kbits/s speed=0.0309x    frame=  375 fps=1.1 q=29.0 size=    4510kB time=00:00:10.67 bitrate=3460.3kbits/s speed=0.0309x    frame=  376 fps=1.1 q=29.0 size=    4533kB time=00:00:10.71 bitrate=3466.8kbits/s speed=0.0309x    frame=  377 fps=1.1 q=29.0 size=    4545kB time=00:00:10.74 bitrate=3465.3kbits/s speed=0.0309x    frame=  378 fps=1.1 q=29.0 size=    4553kB time=00:00:10.77 bitrate=3460.9kbits/s speed=0.0309x    frame=  379 fps=1.1 q=29.0 size=    4561kB time=00:00:10.81 bitrate=3456.5kbits/s speed=0.0309x    frame=  380 fps=1.1 q=29.0 size=    4587kB time=00:00:10.84 bitrate=3464.9kbits/s speed=0.0309x    frame=  381 fps=1.1 q=29.0 size=    4599kB time=00:00:10.87 bitrate=3463.5kbits/s speed=0.0309x    frame=  382 fps=1.1 q=29.0 size=    4607kB time=00:00:10.91 bitrate=3458.8kbits/s speed=0.0309x    frame=  383 fps=1.1 q=29.0 size=    4615kB time=00:00:10.94 bitrate=3454.6kbits/s speed=0.0309x    frame=  384 fps=1.1 q=29.0 size=    4637kB time=00:00:10.97 bitrate=3460.2kbits/s speed=0.0309x    frame=  385 fps=1.1 q=29.0 size=    4649kB time=00:00:11.01 bitrate=3458.6kbits/s speed=0.0309x    frame=  386 fps=1.1 q=29.0 size=    4657kB time=00:00:11.04 bitrate=3454.4kbits/s speed=0.0309x    frame=  387 fps=1.1 q=29.0 size=    4667kB time=00:00:11.07 bitrate=3450.9kbits/s speed=0.0309x    frame=  388 fps=1.1 q=29.0 size=    4689kB time=00:00:11.11 bitrate=3457.0kbits/s speed=0.031x    frame=  389 fps=1.1 q=29.0 size=    4701kB time=00:00:11.14 bitrate=3455.4kbits/s speed=0.031x    frame=  390 fps=1.1 q=29.0 size=    4709kB time=00:00:11.17 bitrate=3451.4kbits/s speed=0.031x    frame=  391 fps=1.1 q=29.0 size=    4718kB time=00:00:11.21 bitrate=3447.6kbits/s speed=0.031x    frame=  392 fps=1.1 q=29.0 size=    4740kB time=00:00:11.24 bitrate=3453.3kbits/s speed=0.031x    frame=  393 fps=1.1 q=29.0 size=    4753kB time=00:00:11.27 bitrate=3452.3kbits/s speed=0.0311x    frame=  394 fps=1.1 q=29.0 size=    4761kB time=00:00:11.31 bitrate=3448.0kbits/s speed=0.0311x    frame=  395 fps=1.1 q=29.0 size=    4769kB time=00:00:11.34 bitrate=3443.8kbits/s speed=0.0311x    frame=  396 fps=1.1 q=29.0 size=    4790kB time=00:00:11.37 bitrate=3448.7kbits/s speed=0.0311x    frame=  397 fps=1.1 q=29.0 size=    4801kB time=00:00:11.41 bitrate=3446.6kbits/s speed=0.0311x    frame=  398 fps=1.1 q=29.0 size=    4809kB time=00:00:11.44 bitrate=3442.0kbits/s speed=0.0311x    frame=  399 fps=1.1 q=29.0 size=    4817kB time=00:00:11.47 bitrate=3437.6kbits/s speed=0.0311x    frame=  400 fps=1.1 q=29.0 size=    4838kB time=00:00:11.51 bitrate=3443.2kbits/s speed=0.0312x    frame=  401 fps=1.1 q=29.0 size=    4849kB time=00:00:11.54 bitrate=3440.8kbits/s speed=0.0312x    frame=  402 fps=1.1 q=29.0 size=    4857kB time=00:00:11.57 bitrate=3436.4kbits/s speed=0.0312x    frame=  403 fps=1.1 q=29.0 size=    4865kB time=00:00:11.61 bitrate=3432.2kbits/s speed=0.0312x    frame=  404 fps=1.1 q=29.0 size=    4885kB time=00:00:11.64 bitrate=3436.4kbits/s speed=0.0312x    frame=  405 fps=1.1 q=29.0 size=    4895kB time=00:00:11.67 bitrate=3433.7kbits/s speed=0.0312x    frame=  406 fps=1.1 q=29.0 size=    4903kB time=00:00:11.71 bitrate=3429.4kbits/s speed=0.0312x    frame=  407 fps=1.1 q=29.0 size=    4909kB time=00:00:11.74 bitrate=3424.2kbits/s speed=0.0313x    frame=  408 fps=1.1 q=29.0 size=    4929kB time=00:00:11.77 bitrate=3428.3kbits/s speed=0.0313x    frame=  409 fps=1.1 q=29.0 size=    4939kB time=00:00:11.81 bitrate=3425.4kbits/s speed=0.0313x    frame=  410 fps=1.1 q=29.0 size=    4946kB time=00:00:11.84 bitrate=3420.7kbits/s speed=0.0313x    frame=  411 fps=1.1 q=29.0 size=    4953kB time=00:00:11.87 bitrate=3415.7kbits/s speed=0.0313x    frame=  412 fps=1.1 q=29.0 size=    4975kB time=00:00:11.91 bitrate=3421.4kbits/s speed=0.0313x    frame=  413 fps=1.1 q=29.0 size=    4986kB time=00:00:11.94 bitrate=3419.2kbits/s speed=0.0313x    frame=  414 fps=1.1 q=29.0 size=    4994kB time=00:00:11.97 bitrate=3415.1kbits/s speed=0.0314x    frame=  415 fps=1.1 q=29.0 size=    5001kB time=00:00:12.01 bitrate=3410.5kbits/s speed=0.0314x    frame=  416 fps=1.1 q=29.0 size=    5022kB time=00:00:12.04 bitrate=3415.7kbits/s speed=0.0314x    frame=  417 fps=1.1 q=29.0 size=    5033kB time=00:00:12.07 bitrate=3413.7kbits/s speed=0.0314x    frame=  418 fps=1.1 q=29.0 size=    5041kB time=00:00:12.11 bitrate=3409.3kbits/s speed=0.0314x    frame=  419 fps=1.1 q=29.0 size=    5049kB time=00:00:12.14 bitrate=3405.2kbits/s speed=0.0314x    frame=  420 fps=1.1 q=29.0 size=    5070kB time=00:00:12.17 bitrate=3410.6kbits/s speed=0.0314x    frame=  421 fps=1.1 q=29.0 size=    5082kB time=00:00:12.21 bitrate=3409.1kbits/s speed=0.0315x    frame=  422 fps=1.1 q=29.0 size=    5089kB time=00:00:12.24 bitrate=3404.7kbits/s speed=0.0315x    frame=  423 fps=1.1 q=29.0 size=    5097kB time=00:00:12.27 bitrate=3400.5kbits/s speed=0.0315x    frame=  424 fps=1.1 q=29.0 size=    5118kB time=00:00:12.31 bitrate=3405.3kbits/s speed=0.0315x    frame=  425 fps=1.1 q=29.0 size=    5128kB time=00:00:12.34 bitrate=3402.9kbits/s speed=0.0315x    frame=  426 fps=1.1 q=29.0 size=    5136kB time=00:00:12.37 bitrate=3398.8kbits/s speed=0.0315x    frame=  427 fps=1.1 q=29.0 size=    5143kB time=00:00:12.41 bitrate=3394.1kbits/s speed=0.0315x    frame=  428 fps=1.1 q=29.0 size=    5164kB time=00:00:12.44 bitrate=3398.7kbits/s speed=0.0315x    frame=  429 fps=1.1 q=29.0 size=    5173kB time=00:00:12.47 bitrate=3396.1kbits/s speed=0.0315x    frame=  430 fps=1.1 q=29.0 size=    5180kB time=00:00:12.51 bitrate=3391.6kbits/s speed=0.0315x    frame=  431 fps=1.1 q=29.0 size=    5187kB time=00:00:12.54 bitrate=3387.2kbits/s speed=0.0315x    frame=  432 fps=1.1 q=29.0 size=    5208kB time=00:00:12.57 bitrate=3391.4kbits/s speed=0.0315x    frame=  433 fps=1.1 q=29.0 size=    5217kB time=00:00:12.61 bitrate=3388.7kbits/s speed=0.0315x    frame=  434 fps=1.1 q=29.0 size=    5225kB time=00:00:12.64 bitrate=3384.8kbits/s speed=0.0316x    frame=  435 fps=1.1 q=29.0 size=    5232kB time=00:00:12.67 bitrate=3380.1kbits/s speed=0.0316x    frame=  436 fps=1.1 q=29.0 size=    5251kB time=00:00:12.71 bitrate=3384.0kbits/s speed=0.0316x    frame=  437 fps=1.1 q=29.0 size=    5262kB time=00:00:12.74 bitrate=3381.7kbits/s speed=0.0316x    frame=  438 fps=1.1 q=29.0 size=    5269kB time=00:00:12.77 bitrate=3377.5kbits/s speed=0.0316x    frame=  439 fps=1.1 q=29.0 size=    5276kB time=00:00:12.81 bitrate=3373.2kbits/s speed=0.0316x    frame=  440 fps=1.1 q=29.0 size=    5300kB time=00:00:12.84 bitrate=3379.8kbits/s speed=0.0316x    frame=  441 fps=1.1 q=29.0 size=    5311kB time=00:00:12.87 bitrate=3377.8kbits/s speed=0.0317x    frame=  442 fps=1.1 q=29.0 size=    5318kB time=00:00:12.91 bitrate=3374.0kbits/s speed=0.0317x    frame=  443 fps=1.1 q=29.0 size=    5326kB time=00:00:12.94 bitrate=3370.1kbits/s speed=0.0317x    frame=  444 fps=1.1 q=29.0 size=    5347kB time=00:00:12.97 bitrate=3374.9kbits/s speed=0.0317x    frame=  445 fps=1.1 q=29.0 size=    5358kB time=00:00:13.01 bitrate=3373.1kbits/s speed=0.0317x    frame=  446 fps=1.1 q=29.0 size=    5366kB time=00:00:13.04 bitrate=3369.2kbits/s speed=0.0317x    frame=  447 fps=1.1 q=29.0 size=    5374kB time=00:00:13.07 bitrate=3365.6kbits/s speed=0.0317x    frame=  448 fps=1.1 q=29.0 size=    5397kB time=00:00:13.11 bitrate=3371.3kbits/s speed=0.0317x    frame=  449 fps=1.1 q=29.0 size=    5410kB time=00:00:13.14 bitrate=3370.8kbits/s speed=0.0318x    frame=  450 fps=1.1 q=29.0 size=    5418kB time=00:00:13.17 bitrate=3367.8kbits/s speed=0.0318x    frame=  451 fps=1.1 q=29.0 size=    5427kB time=00:00:13.21 bitrate=3364.8kbits/s speed=0.0318x    frame=  452 fps=1.1 q=29.0 size=    5451kB time=00:00:13.24 bitrate=3371.3kbits/s speed=0.0318x    frame=  453 fps=1.1 q=29.0 size=    5464kB time=00:00:13.28 bitrate=3370.3kbits/s speed=0.0318x    frame=  454 fps=1.1 q=29.0 size=    5472kB time=00:00:13.31 bitrate=3367.0kbits/s speed=0.0318x    frame=  455 fps=1.1 q=29.0 size=    5480kB time=00:00:13.34 bitrate=3363.8kbits/s speed=0.0318x    frame=  456 fps=1.1 q=29.0 size=    5504kB time=00:00:13.38 bitrate=3370.1kbits/s speed=0.0318x    frame=  457 fps=1.1 q=29.0 size=    5517kB time=00:00:13.41 bitrate=3369.2kbits/s speed=0.0318x    frame=  458 fps=1.1 q=29.0 size=    5525kB time=00:00:13.44 bitrate=3366.0kbits/s speed=0.0319x    frame=  459 fps=1.1 q=29.0 size=    5534kB time=00:00:13.48 bitrate=3363.3kbits/s speed=0.0319x    frame=  460 fps=1.1 q=29.0 size=    5561kB time=00:00:13.51 bitrate=3370.8kbits/s speed=0.0319x    frame=  461 fps=1.1 q=29.0 size=    5573kB time=00:00:13.54 bitrate=3369.9kbits/s speed=0.0319x    frame=  462 fps=1.1 q=29.0 size=    5582kB time=00:00:13.58 bitrate=3367.2kbits/s speed=0.0319x    frame=  463 fps=1.1 q=29.0 size=    5591kB time=00:00:13.61 bitrate=3364.6kbits/s speed=0.0319x    frame=  464 fps=1.1 q=29.0 size=    5617kB time=00:00:13.64 bitrate=3371.7kbits/s speed=0.0319x    frame=  465 fps=1.1 q=29.0 size=    5630kB time=00:00:13.68 bitrate=3371.2kbits/s speed=0.0319x    frame=  466 fps=1.1 q=29.0 size=    5639kB time=00:00:13.71 bitrate=3368.4kbits/s speed=0.0319x    frame=  467 fps=1.1 q=29.0 size=    5649kB time=00:00:13.74 bitrate=3366.2kbits/s speed=0.0319x    frame=  468 fps=1.1 q=29.0 size=    5675kB time=00:00:13.78 bitrate=3373.4kbits/s speed=0.0319x    frame=  469 fps=1.1 q=29.0 size=    5688kB time=00:00:13.81 bitrate=3373.0kbits/s speed=0.0319x    frame=  470 fps=1.1 q=29.0 size=    5697kB time=00:00:13.84 bitrate=3370.3kbits/s speed=0.032x    frame=  471 fps=1.1 q=29.0 size=    5706kB time=00:00:13.88 bitrate=3367.7kbits/s speed=0.032x    frame=  472 fps=1.1 q=29.0 size=    5735kB time=00:00:13.91 bitrate=3376.3kbits/s speed=0.032x    frame=  473 fps=1.1 q=29.0 size=    5750kB time=00:00:13.94 bitrate=3377.0kbits/s speed=0.032x    frame=  474 fps=1.1 q=29.0 size=    5760kB time=00:00:13.98 bitrate=3374.8kbits/s speed=0.032x    frame=  475 fps=1.1 q=29.0 size=    5770kB time=00:00:14.01 bitrate=3372.6kbits/s speed=0.032x    frame=  476 fps=1.1 q=29.0 size=    5794kB time=00:00:14.04 bitrate=3379.0kbits/s speed=0.032x    frame=  477 fps=1.1 q=29.0 size=    5808kB time=00:00:14.08 bitrate=3379.2kbits/s speed=0.032x    frame=  478 fps=1.1 q=29.0 size=    5818kB time=00:00:14.11 bitrate=3376.8kbits/s speed=0.032x    frame=  479 fps=1.1 q=29.0 size=    5828kB time=00:00:14.14 bitrate=3374.5kbits/s speed=0.032x    frame=  480 fps=1.1 q=29.0 size=    5853kB time=00:00:14.18 bitrate=3381.0kbits/s speed=0.032x    frame=  481 fps=1.1 q=29.0 size=    5866kB time=00:00:14.21 bitrate=3380.5kbits/s speed=0.032x    frame=  482 fps=1.1 q=29.0 size=    5875kB time=00:00:14.24 bitrate=3378.0kbits/s speed=0.032x    frame=  483 fps=1.1 q=29.0 size=    5884kB time=00:00:14.28 bitrate=3375.4kbits/s speed=0.032x    frame=  484 fps=1.1 q=29.0 size=    5910kB time=00:00:14.31 bitrate=3382.3kbits/s speed=0.032x    frame=  485 fps=1.1 q=29.0 size=    5924kB time=00:00:14.34 bitrate=3382.2kbits/s speed=0.032x    frame=  485 fps=1.1 q=29.0 size=    5924kB time=00:00:14.34 bitrate=3382.2kbits/s speed=0.0319x    frame=  485 fps=1.1 q=-1.0 Lsize=    6600kB time=00:00:16.08 bitrate=3361.8kbits/s speed=0.0357x    
video:6594kB audio:0kB subtitle:0kB other streams:0kB global headers:0kB muxing overhead: 0.099322%
[libx264 @ 0x53dfb60] frame I:2     Avg QP:22.73  size: 55437
[libx264 @ 0x53dfb60] frame P:127   Avg QP:24.77  size: 23863
[libx264 @ 0x53dfb60] frame B:356   Avg QP:27.51  size: 10139
[libx264 @ 0x53dfb60] consecutive B-frames:  1.6%  1.2%  0.6% 96.5%
[libx264 @ 0x53dfb60] mb I  I16..4: 16.4% 62.0% 21.7%
[libx264 @ 0x53dfb60] mb P  I16..4:  5.2% 10.7%  3.0%  P16..4: 42.2% 16.4%  7.1%  0.0%  0.0%    skip:15.4%
[libx264 @ 0x53dfb60] mb B  I16..4:  0.8%  1.3%  0.6%  B16..8: 42.6%  7.7%  1.8%  direct: 2.2%  skip:43.0%  L0:43.7% L1:49.7% BI: 6.6%
[libx264 @ 0x53dfb60] 8x8 transform intra:54.7% inter:77.9%
[libx264 @ 0x53dfb60] coded y,uvDC,uvAC intra: 41.6% 37.7% 7.4% inter: 16.4% 14.9% 0.6%
[libx264 @ 0x53dfb60] i16 v,h,dc,p: 16% 47%  9% 28%
[libx264 @ 0x53dfb60] i8 v,h,dc,ddl,ddr,vr,hd,vl,hu: 12% 28% 30%  3%  5%  3%  9%  3%  7%
[libx264 @ 0x53dfb60] i4 v,h,dc,ddl,ddr,vr,hd,vl,hu: 21% 23% 30%  4%  5%  4%  6%  4%  4%
[libx264 @ 0x53dfb60] i8c dc,h,v,p: 64% 24% 10%  3%
[libx264 @ 0x53dfb60] Weighted P-Frames: Y:10.2% UV:3.1%
[libx264 @ 0x53dfb60] ref P L0: 52.4% 20.0% 18.3%  8.8%  0.4%
[libx264 @ 0x53dfb60] ref B L0: 86.9%  9.8%  3.4%
[libx264 @ 0x53dfb60] ref B L1: 95.0%  5.0%
[libx264 @ 0x53dfb60] kb/s:3337.41
